<?xml version="1.0" encoding="UTF-8"?>
<svg version="1.1" xmlns="http://www.w3.org/2000/svg" width="512" height="512">
<path d="M0 0 C21.64047701 17.4129619 34.75073014 40.37348854 38.19921875 67.9921875 C40.58836988 94.24298556 32.75847224 119.56906051 16.288311 140.01371002 C8.51098153 149.32187757 -0.36332553 157.72277832 -8.949296 166.27897 C-11.87777374 169.20059192 -14.79752145 172.13091813 -17.71846008 175.06007385 C-23.42537754 180.78026139 -29.14029039 186.49239408 -34.85820793 192.20158377 C-39.50866865 196.84524236 -44.15616015 201.49185361 -48.80159378 206.14054108 C-49.46521205 206.80461905 -50.12883032 207.46869702 -50.81255824 208.15289856 C-52.16107052 209.50237012 -53.50957612 210.85184835 -54.8580751 212.20133319 C-67.47328392 224.82507603 -80.09763499 237.43964381 -92.72518404 250.05104104 C-103.53912844 260.85158098 -114.34517928 271.65996614 -125.14550781 282.47412109 C-137.71634771 295.06104668 -150.29207981 307.64305139 -162.87556231 320.2173388 C-164.21949351 321.56031445 -165.5634185 322.90329632 -166.90733719 324.24628448 C-167.56841364 324.90689811 -168.22949009 325.56751174 -168.91059916 326.24814396 C-173.54909718 330.88406127 -178.18412477 335.52343067 -182.81779099 340.16417694 C-188.47078375 345.82561805 -194.12916118 351.48161213 -199.7943282 357.13087192 C-202.67970511 360.00841128 -205.56271869 362.88821031 -208.43917656 365.77466774 C-211.08028266 368.42481558 -213.72840102 371.06775292 -216.38191588 373.70547441 C-217.77749643 375.09619862 -219.16584629 376.49416765 -220.55378664 377.89251685 C-246.99805467 404.09583413 -279.83101312 417.73530922 -317.00512695 417.67016602 C-351.32837189 417.27457607 -380.71194098 403.769476 -405.48828125 380.42578125 C-406.16375 379.81476563 -406.83921875 379.20375 -407.53515625 378.57421875 C-413.8694542 372.61997867 -418.6839333 365.62311509 -423.48828125 358.42578125 C-424.11863281 357.49121094 -424.74898438 356.55664062 -425.3984375 355.59375 C-436.40003535 338.07639944 -442.76830249 316.0860413 -443.48828125 295.42578125 C-443.52824219 294.45125 -443.56820313 293.47671875 -443.609375 292.47265625 C-444.06671205 270.6280864 -439.03301879 249.9850197 -429.48828125 230.42578125 C-429.00488281 229.430625 -428.52148438 228.43546875 -428.0234375 227.41015625 C-418.38806851 208.72661526 -402.48046054 194.25943269 -387.82641602 179.55517578 C-386.0382155 177.75742264 -384.250185 175.95950038 -382.46231079 174.16142273 C-377.12561101 168.79622122 -371.78461793 163.43531115 -366.44214216 158.07586175 C-364.93124848 156.5601597 -363.42044153 155.04437126 -361.90965152 153.52856588 C-352.50501134 144.09297871 -343.09822028 134.65953913 -333.68650913 125.23100471 C-331.51517868 123.05572567 -329.34387555 120.88041937 -327.17260742 118.70507812 C-326.63303754 118.16449988 -326.09346765 117.62392163 -325.53754716 117.06696223 C-316.78275269 108.29513308 -308.04009046 99.51131213 -299.30219997 90.72264768 C-290.31140165 81.68003946 -281.30927822 72.64882874 -272.29616398 63.62846267 C-267.24354402 58.57118893 -262.19604584 53.50902491 -257.16134834 48.43390274 C-252.42987216 43.6644782 -247.68331997 38.910594 -242.92618179 34.16674232 C-241.18515223 32.42565881 -239.44923554 30.67944492 -237.71891212 28.92772102 C-235.35217406 26.53328795 -232.96754228 24.15818911 -230.57765198 21.78689575 C-229.90087593 21.09332478 -229.22409989 20.3997538 -228.52681547 19.68516552 C-223.07946301 14.3428035 -217.06343263 10.93861308 -209.38671875 10.078125 C-202.22486579 10.88743656 -196.78137358 12.6810179 -191.921875 18.20703125 C-188.4673633 22.8524145 -187.31433448 26.41801419 -187.17578125 32.11328125 C-187.13839844 33.10714844 -187.10101563 34.10101563 -187.0625 35.125 C-188.12829901 43.38738679 -193.25993629 48.76798476 -199.00798035 54.39958191 C-200.14901819 55.54151291 -200.14901819 55.54151291 -201.31310731 56.70651323 C-203.85454901 59.24518571 -206.4099782 61.769286 -208.96557617 64.29370117 C-210.79479295 66.11523792 -212.62309864 67.93768998 -214.45056152 69.76098633 C-218.38337884 73.68228144 -222.32321876 77.59640261 -226.26775169 81.50591087 C-231.98263958 87.17043203 -237.68441247 92.84801264 -243.38275079 98.52917651 C-252.64505441 107.76323426 -261.91479001 116.98978993 -271.19067383 126.21020508 C-272.02260707 127.03717145 -272.02260707 127.03717145 -272.87134705 127.88084421 C-277.36822071 132.35075702 -281.8654564 136.82030552 -286.36273003 141.2898159 C-290.28666199 145.18954604 -294.21045655 149.08941434 -298.1340332 152.98950195 C-298.68646185 153.5386181 -299.2388905 154.08773424 -299.80805942 154.65349027 C-309.04420862 163.83474878 -318.27239303 173.02397328 -327.49500352 182.21883088 C-333.17331378 187.87929147 -338.85859509 193.53256958 -344.55329446 199.17654256 C-348.9257977 203.51111683 -353.28790048 207.85602175 -357.64641571 212.20465851 C-359.4274122 213.97820503 -361.21184408 215.7483099 -363.00006294 217.51457405 C-383.59385797 237.86358234 -398.7080161 259.13125473 -398.92578125 289.11328125 C-398.56324934 312.66115979 -389.19637989 333.85220836 -372.48828125 350.42578125 C-354.83882772 367.26150799 -332.69024228 373.11344491 -308.81640625 372.7578125 C-290.73801393 372.096607 -273.45118499 364.95284057 -259.88973999 353.01319885 C-259.25998933 352.46203638 -258.63023867 351.9108739 -257.98140466 351.34300953 C-248.42463266 342.84303157 -239.46716746 333.69597967 -230.43434072 324.6479491 C-227.64453513 321.85564523 -224.8489469 319.06913978 -222.0541687 316.28181458 C-216.60053418 310.84084091 -211.15229698 305.39449467 -205.70616587 299.94601148 C-201.27694511 295.51499885 -196.84594372 291.08577429 -192.41370773 286.65777779 C-191.46315439 285.70811722 -191.46315439 285.70811722 -190.49339794 284.7392716 C-189.20560366 283.4526892 -187.91780825 282.16610792 -186.63001172 280.87952776 C-174.59267547 268.85303236 -162.56182281 256.82006744 -150.53296332 244.78509451 C-139.54719701 233.79415364 -128.55322492 222.8114628 -117.55537994 211.83260935 C-106.2320636 200.52869537 -94.91434471 189.21920485 -83.60260236 177.90370852 C-77.26394526 171.5631441 -70.92313457 165.22477099 -64.57643509 158.89225578 C-59.17785715 153.50562271 -53.78461288 148.11371696 -48.39804371 142.71507423 C-45.65430931 139.96547496 -42.90829295 137.21826906 -40.1556015 134.47763443 C-37.6289049 131.96187603 -35.109417 129.43911229 -32.59515612 126.91092736 C-31.2683781 125.58029471 -29.93432373 124.2569291 -28.59989798 122.9339661 C-21.07471398 115.34181838 -13.03743408 106.80678906 -9.48828125 96.55078125 C-9.11703125 95.52210938 -8.74578125 94.4934375 -8.36328125 93.43359375 C-4.46766526 80.0424138 -5.8186927 66.14175512 -11.84375 53.60546875 C-19.67336124 39.87741044 -31.11324805 31.19738093 -46.36962891 26.89526367 C-59.65962412 23.95026934 -74.39453499 26.3994139 -85.81918335 33.56619358 C-91.20879056 37.0743501 -95.68410412 41.05565514 -100.19384766 45.61668396 C-100.99742234 46.41331312 -101.80099703 47.20994228 -102.62892246 48.03071171 C-105.29208788 50.67572764 -107.94089663 53.3346472 -110.58984375 55.99389648 C-112.50584822 57.90502607 -114.42480497 59.81318189 -116.34358215 61.7215271 C-120.99522343 66.35162274 -125.63602664 70.9924334 -130.27282161 75.6373921 C-134.04205127 79.41294047 -137.81500886 83.18472525 -141.59060669 86.95390511 C-142.12944557 87.49184233 -142.66828446 88.02977956 -143.22345179 88.58401792 C-144.31830712 89.67702194 -145.41316808 90.77002033 -146.50803459 91.86301316 C-156.75255654 102.09099134 -166.98444342 112.33153548 -177.21225536 122.57621951 C-186.56417156 131.94284866 -195.93070056 141.29470473 -205.30436802 150.639562 C-214.94314072 160.24893098 -224.57265504 169.86748439 -234.1919632 179.49633938 C-235.2801221 180.58552079 -236.36829496 181.67468826 -237.45648193 182.76384163 C-237.99181643 183.29965252 -238.52715094 183.83546341 -239.0787077 184.387511 C-242.84573744 188.15670253 -246.61870723 191.91988375 -250.394104 195.68069267 C-254.99427156 200.26333163 -259.58550685 204.85469813 -264.16553158 209.4574719 C-266.50097695 211.80405126 -268.84153246 214.14508585 -271.19050026 216.47813988 C-273.73826258 219.010002 -276.27013248 221.55676873 -278.79858398 224.1078949 C-279.54107706 224.83855225 -280.28357014 225.56920959 -281.048563 226.32200807 C-285.99384039 231.3578305 -289.06502076 235.87573095 -289.73828125 243.11328125 C-289.08135585 249.18984117 -287.53113701 253.75763046 -283.48828125 258.42578125 C-279.0310141 261.90244963 -275.43149385 263.57033221 -269.80078125 263.73828125 C-268.99253906 263.77566406 -268.18429687 263.81304687 -267.3515625 263.8515625 C-257.36091068 262.36591305 -251.02921864 254.48324771 -244.32421875 247.65234375 C-243.1152547 246.43569431 -241.90537031 245.21995881 -240.69464111 244.00506592 C-238.09818059 241.39600183 -235.50805571 238.78086445 -232.92266846 236.16082764 C-228.83107953 232.01496939 -224.7241161 227.88457152 -220.61474609 223.75634766 C-211.89401301 214.99128774 -203.19028792 206.20942721 -194.48828125 197.42578125 C-185.09256657 187.94191914 -175.69397817 178.46101668 -166.27571297 168.99954033 C-162.19442897 164.89837162 -158.12308732 160.78765963 -154.05917358 156.66928101 C-151.52595815 154.10614958 -148.98441198 151.55140305 -146.44057465 148.99881744 C-145.26641329 147.81719194 -144.09570277 146.63212536 -142.92881012 145.44332123 C-130.09814272 132.3794577 -130.09814272 132.3794577 -121.36328125 130.89453125 C-113.83760779 130.97633205 -108.37757595 131.84033769 -102.73828125 137.0390625 C-97.71495692 142.48502229 -96.30252641 147.59447995 -96.125 154.88671875 C-97.10181837 161.7139439 -99.82824081 166.51181411 -104.69013977 171.26928711 C-105.21368693 171.80133979 -105.73723409 172.33339247 -106.27664632 172.88156796 C-108.01953435 174.64659261 -109.77958608 176.39337936 -111.5402832 178.140625 C-112.7998125 179.40857428 -114.05828458 180.6775745 -115.31578064 181.94754028 C-118.72618696 185.38496053 -122.15224791 188.80636122 -125.58220315 192.22426224 C-128.45185372 195.0867662 -131.31363459 197.95707302 -134.17544621 200.8274107 C-140.93492573 207.60683527 -147.7070641 214.37342445 -154.48754883 221.13183594 C-161.45969864 228.08167207 -168.41171422 235.05117751 -175.35374862 242.03108501 C-181.3311062 248.03979227 -187.32018516 254.0366351 -193.31876916 260.0241518 C-196.89377328 263.59270007 -200.46450588 267.16525239 -204.02428627 270.74899292 C-207.37856713 274.12469677 -210.74742063 277.48517984 -214.1274662 280.83507919 C-215.35717109 282.05851322 -216.58193375 283.286941 -217.8009758 284.52099991 C-231.9234022 298.80303978 -248.19587776 308.27191466 -268.86328125 308.73828125 C-286.75554274 308.54994166 -303.24582832 301.75784693 -315.93359375 289.11328125 C-327.83487449 276.5932795 -334.11063785 261.40764308 -333.92578125 244.11328125 C-333.91820801 243.11071289 -333.91063477 242.10814453 -333.90283203 241.07519531 C-333.27195482 212.51533805 -313.25978784 194.8907983 -294.33984375 176.01855469 C-292.52316707 174.19916295 -290.70691504 172.37934711 -288.89105225 170.55914307 C-284.49815631 166.15741928 -280.09995073 161.76103953 -275.69972658 157.36664268 C-272.12040491 153.79186262 -268.54307028 150.21510506 -264.96710205 146.63697052 C-264.4555512 146.1251132 -263.94400035 145.61325589 -263.41694796 145.08588775 C-262.37734145 144.0456417 -261.33773938 143.00539121 -260.29814172 141.96513632 C-250.58249819 132.24380917 -240.86076844 122.5285872 -231.13689637 112.81549171 C-222.81369725 104.50123168 -214.49576285 96.18173486 -206.18164062 87.85839844 C-196.49699652 78.16302608 -186.8090841 68.47093859 -177.11601067 58.78399301 C-176.08048977 57.74910913 -175.04497302 56.71422112 -174.00946045 55.67932892 C-173.50012864 55.17030566 -172.99079683 54.6612824 -172.46603072 54.13683419 C-168.89602186 50.56854422 -165.32832246 46.99795538 -161.76153564 43.42644501 C-156.95306215 38.61174279 -152.13925084 33.8024317 -147.32190704 28.99660492 C-145.56064391 27.23797402 -143.80105767 25.47766176 -142.04332733 23.71549988 C-103.70964486 -14.70586956 -48.61150245 -37.15889188 0 0 Z " fill="#4185F4" transform="translate(458.48828125,56.57421875)"/>
</svg>
